<svg width="120" height="120" viewBox="0 0 120 120" fill="none" xmlns="http://www.w3.org/2000/svg">
<g clip-path="url(#clip0_106_17)">
<path d="M60 119.25C92.7229 119.25 119.25 92.7229 119.25 60C119.25 27.2771 92.7229 0.75 60 0.75C27.2771 0.75 0.75 27.2771 0.75 60C0.75 92.7229 27.2771 119.25 60 119.25Z" fill="#F9F7E8"/>
<path d="M23.76 59.1449V44.8949H30.45C33.06 44.8949 34.77 46.1849 34.77 48.4649C34.77 49.9049 33.96 50.8949 32.985 51.2999C33.78 51.4649 34.455 51.8849 35.025 52.5599C35.595 53.2349 35.88 54.0599 35.88 55.1099C35.88 56.3099 35.43 57.2849 34.53 58.0349C33.63 58.7849 32.43 59.1599 30.93 59.1599H23.76V59.1449ZM26.685 50.4749H29.985C31.2 50.4749 31.935 49.9049 31.935 48.9299C31.935 47.9399 31.2 47.3399 29.985 47.3399H26.685V50.4749ZM26.685 56.6249H30.375C31.815 56.6249 32.7 55.9799 32.7 54.7649C32.7 53.5649 31.83 52.8899 30.375 52.8899H26.685V56.6249Z" fill="#77917F"/>
<path d="M37.935 59.1449V44.8949H40.86V56.5199H48.09V59.1449H37.935Z" fill="#77917F"/>
<path d="M49.17 59.1449L55.275 44.8199H58.08L64.185 59.1449H61.065L59.655 55.8449H53.625L52.215 59.1449H49.17ZM54.57 53.4299H58.74L56.67 48.4799L54.57 53.4299Z" fill="#77917F"/>
<path d="M66.09 59.1449V44.8949H68.595L75.78 54.0149V44.8949H78.63V59.1449H76.2L68.955 49.9799V59.1449H66.09Z" fill="#77917F"/>
<path d="M81.195 59.1449V44.8949H84.12V50.5199L89.37 44.8949H92.955L86.91 51.4349L93.99 59.1449H90.24L84.105 52.5749V59.1449H81.195Z" fill="#77917F"/>
<path d="M94.8 57.585C94.8 56.49 95.67 55.62 96.795 55.62C97.89 55.62 98.79 56.49 98.79 57.585C98.79 58.71 97.905 59.595 96.795 59.595C95.67 59.595 94.8 58.695 94.8 57.585Z" fill="#E63946"/>
<path d="M23.88 76.7999V62.5499H26.385L33.57 71.6699V62.5499H36.42V76.7999H33.99L26.745 67.6349V76.7999H23.88Z" fill="#77917F"/>
<path d="M39.12 76.7999V62.5499H42.03L46.17 68.4599L50.31 62.5499H53.205V76.7999H50.31V67.0499L47.025 71.6249H45.39L42.045 67.0499V76.7999H39.12Z" fill="#77917F"/>
<path d="M55.785 76.7999V62.5499H62.49C65.1 62.5499 66.81 63.8399 66.81 66.1199C66.81 67.5599 66 68.5499 65.025 68.9549C65.82 69.1199 66.495 69.5399 67.065 70.2149C67.635 70.8899 67.92 71.7149 67.92 72.7649C67.92 73.9649 67.47 74.9399 66.57 75.6899C65.67 76.4399 64.47 76.8149 62.97 76.8149H55.785V76.7999ZM58.725 68.1299H62.025C63.24 68.1299 63.975 67.5599 63.975 66.5849C63.975 65.5949 63.24 64.9949 62.025 64.9949H58.725V68.1299ZM58.725 74.2799H62.415C63.855 74.2799 64.74 73.6349 64.74 72.4199C64.74 71.2049 63.87 70.5449 62.415 70.5449H58.725V74.2799Z" fill="#77917F"/>
<path d="M69.735 76.7999V62.5499H76.335C77.835 62.5499 79.05 62.9399 79.92 63.7349C80.79 64.5149 81.24 65.5199 81.24 66.7649C81.24 68.6549 80.145 70.1399 78.285 70.7099L82.68 76.7999H79.275L75.12 71.0399H72.66V76.7999H69.735ZM72.66 68.5799H76.155C77.475 68.5799 78.27 67.9649 78.27 66.8549C78.27 65.7749 77.475 65.1299 76.155 65.1299H72.66V68.5799Z" fill="#77917F"/>
<path d="M83.265 75.5549V72.4949C83.85 73.0049 84.63 73.4549 85.62 73.8449C86.625 74.2049 87.6 74.3999 88.545 74.3999C90.09 74.3999 91.29 73.8299 91.29 72.7499C91.29 72.2399 91.05 71.7899 90.555 71.5649C90.285 71.3999 90.15 71.3399 89.745 71.2049L89.25 71.0399L88.11 70.6949L87.045 70.3499C86.835 70.2899 86.52 70.1699 86.085 70.0049C85.665 69.8399 85.35 69.7049 85.17 69.5849C84.78 69.3149 84.09 68.8349 83.82 68.3399C83.58 67.8449 83.325 67.1549 83.325 66.3449C83.325 65.0849 83.82 64.0799 84.765 63.3749C85.725 62.6399 87.045 62.2799 88.695 62.2799C90.345 62.2799 91.905 62.6699 93.36 63.4649V66.3149C91.92 65.4149 90.36 64.9649 88.74 64.9649C87.135 64.9649 86.31 65.4299 86.31 66.3749C86.31 66.8399 86.595 67.1249 87.06 67.3499C87.33 67.4999 87.84 67.6799 88.215 67.7849C88.605 67.8899 89.34 68.0849 89.76 68.2349C91.125 68.6699 91.905 69.0449 92.85 69.7199C93.81 70.3949 94.275 71.3849 94.275 72.6899C94.275 74.0549 93.75 75.1349 92.67 75.9299C91.59 76.7249 90.24 77.1149 88.62 77.1149C86.535 77.0849 84.72 76.5749 83.265 75.5549Z" fill="#77917F"/>
</g>
<defs>
<clipPath id="clip0_106_17">
<rect width="120" height="120" fill="white"/>
</clipPath>
</defs>
</svg>
