<svg width="250" height="250" viewBox="0 0 250 250" fill="none" xmlns="http://www.w3.org/2000/svg">
<path d="M125 248.438C193.173 248.438 248.438 193.173 248.438 125C248.438 56.8274 193.173 1.5625 125 1.5625C56.8274 1.5625 1.5625 56.8274 1.5625 125C1.5625 193.173 56.8274 248.438 125 248.438Z" fill="#77917F"/>
<path d="M49.5 123.219V93.5312H63.4375C68.875 93.5312 72.4375 96.2188 72.4375 100.969C72.4375 103.969 70.75 106.031 68.7188 106.875C70.375 107.219 71.7813 108.094 72.9688 109.5C74.1563 110.906 74.75 112.625 74.75 114.813C74.75 117.313 73.8125 119.344 71.9375 120.906C70.0625 122.469 67.5625 123.25 64.4375 123.25H49.5V123.219ZM55.5938 105.156H62.4688C65 105.156 66.5312 103.969 66.5312 101.938C66.5312 99.875 65 98.625 62.4688 98.625H55.5938V105.156ZM55.5938 117.969H63.2813C66.2813 117.969 68.125 116.625 68.125 114.094C68.125 111.594 66.3125 110.188 63.2813 110.188H55.5938V117.969Z" fill="#F9F7E8"/>
<path d="M79.0312 123.219V93.5312H85.125V117.75H100.188V123.219H79.0312Z" fill="#F9F7E8"/>
<path d="M102.438 123.219L115.156 93.375H121L133.719 123.219H127.219L124.281 116.344H111.719L108.781 123.219H102.438ZM113.688 111.313H122.375L118.062 101L113.688 111.313Z" fill="#F9F7E8"/>
<path d="M137.688 123.219V93.5312H142.906L157.875 112.531V93.5312H163.813V123.219H158.75L143.656 104.125V123.219H137.688Z" fill="#F9F7E8"/>
<path d="M169.156 123.219V93.5312H175.25V105.25L186.188 93.5312H193.656L181.063 107.156L195.812 123.219H188L175.219 109.531V123.219H169.156Z" fill="#F9F7E8"/>
<path d="M197.5 119.969C197.5 117.688 199.312 115.875 201.656 115.875C203.937 115.875 205.812 117.688 205.812 119.969C205.812 122.313 203.969 124.156 201.656 124.156C199.312 124.156 197.5 122.281 197.5 119.969Z" fill="#E63946"/>
<path d="M49.75 160V130.312H54.9687L69.9375 149.312V130.312H75.875V160H70.8125L55.7188 140.906V160H49.75Z" fill="#F9F7E8"/>
<path d="M81.5 160V130.312H87.5625L96.1875 142.625L104.813 130.312H110.844V160H104.813V139.688L97.9688 149.219H94.5625L87.5938 139.688V160H81.5Z" fill="#F9F7E8"/>
<path d="M116.219 160V130.312H130.188C135.625 130.312 139.188 133 139.188 137.75C139.188 140.75 137.5 142.813 135.469 143.656C137.125 144 138.531 144.875 139.719 146.281C140.906 147.688 141.5 149.406 141.5 151.594C141.5 154.094 140.562 156.125 138.687 157.688C136.812 159.25 134.312 160.031 131.187 160.031H116.219V160ZM122.344 141.938H129.219C131.75 141.938 133.281 140.75 133.281 138.719C133.281 136.656 131.75 135.406 129.219 135.406H122.344V141.938ZM122.344 154.75H130.031C133.031 154.75 134.875 153.406 134.875 150.875C134.875 148.344 133.063 146.969 130.031 146.969H122.344V154.75Z" fill="#F9F7E8"/>
<path d="M145.281 160V130.312H159.031C162.156 130.312 164.687 131.125 166.5 132.781C168.312 134.406 169.25 136.5 169.25 139.094C169.25 143.031 166.969 146.125 163.094 147.312L172.25 160H165.156L156.5 148H151.375V160H145.281ZM151.375 142.875H158.656C161.406 142.875 163.062 141.594 163.062 139.281C163.062 137.031 161.406 135.688 158.656 135.688H151.375V142.875Z" fill="#F9F7E8"/>
<path d="M173.469 157.406V151.031C174.688 152.094 176.313 153.031 178.375 153.844C180.469 154.594 182.5 155 184.469 155C187.688 155 190.188 153.812 190.188 151.562C190.188 150.5 189.688 149.562 188.656 149.094C188.094 148.75 187.813 148.625 186.969 148.344L185.938 148L183.563 147.281L181.344 146.562C180.906 146.437 180.25 146.188 179.344 145.844C178.469 145.5 177.813 145.219 177.438 144.969C176.625 144.406 175.188 143.406 174.625 142.375C174.125 141.344 173.594 139.906 173.594 138.219C173.594 135.594 174.625 133.5 176.594 132.031C178.594 130.5 181.344 129.75 184.781 129.75C188.219 129.75 191.469 130.562 194.5 132.219V138.156C191.5 136.281 188.25 135.344 184.875 135.344C181.531 135.344 179.813 136.312 179.813 138.281C179.813 139.25 180.406 139.844 181.375 140.312C181.938 140.625 183 141 183.781 141.219C184.594 141.437 186.125 141.844 187 142.156C189.844 143.062 191.469 143.844 193.438 145.25C195.438 146.656 196.406 148.719 196.406 151.437C196.406 154.281 195.313 156.531 193.063 158.188C190.813 159.844 188 160.656 184.625 160.656C180.281 160.594 176.5 159.531 173.469 157.406Z" fill="#F9F7E8"/>
</svg>
