<svg width="62" height="62" viewBox="0 0 62 62" fill="none" xmlns="http://www.w3.org/2000/svg">
    <rect x="1" y="1" width="60" height="60" stroke="#c4c4c4" stroke-width="2" />
    <path d="M21 2L21 60" stroke="#c4c4c4" stroke-width="2" />
    <path d="M2 21H60" stroke="#c4c4c4" stroke-width="2" />
    <path d="M2 41H60" stroke="#c4c4c4" stroke-width="2" />
    <path d="M41 2V60" stroke="#c4c4c4" stroke-width="2" />
    <path
        d="M34.4659 16.8068V16.2273L37.0227 12.1818H37.4432V13.0795H37.1591L35.2273 16.1364V16.1818H38.6705V16.8068H34.4659ZM37.2045 18V16.6307V16.3608V12.1818H37.875V18H37.2045Z"
        fill="#c4c4c4" />
    <path
        d="M15.5682 58.0795C15.1932 58.0795 14.8589 58.0152 14.5653 57.8864C14.2737 57.7576 14.0417 57.5786 13.8693 57.3494C13.6989 57.1184 13.6061 56.8504 13.5909 56.5455H14.3068C14.322 56.733 14.3864 56.8949 14.5 57.0312C14.6136 57.1657 14.7623 57.2699 14.946 57.3438C15.1297 57.4176 15.3333 57.4545 15.5568 57.4545C15.8068 57.4545 16.0284 57.411 16.2216 57.3239C16.4148 57.2367 16.5663 57.1155 16.6761 56.9602C16.786 56.8049 16.8409 56.625 16.8409 56.4205C16.8409 56.2064 16.7879 56.018 16.6818 55.8551C16.5758 55.6903 16.4205 55.5616 16.2159 55.4688C16.0114 55.3759 15.7614 55.3295 15.4659 55.3295H15V54.7045H15.4659C15.697 54.7045 15.8996 54.6629 16.0739 54.5795C16.25 54.4962 16.3873 54.3788 16.4858 54.2273C16.5862 54.0758 16.6364 53.8977 16.6364 53.6932C16.6364 53.4962 16.5928 53.3248 16.5057 53.179C16.4186 53.0331 16.2955 52.9195 16.1364 52.8381C15.9792 52.7566 15.7936 52.7159 15.5795 52.7159C15.3788 52.7159 15.1894 52.7528 15.0114 52.8267C14.8352 52.8987 14.6913 53.0038 14.5795 53.142C14.4678 53.2784 14.4072 53.4432 14.3977 53.6364H13.7159C13.7273 53.3314 13.8191 53.0644 13.9915 52.8352C14.1638 52.6042 14.3892 52.4242 14.6676 52.2955C14.9479 52.1667 15.2557 52.1023 15.5909 52.1023C15.9508 52.1023 16.2595 52.1752 16.517 52.321C16.7746 52.465 16.9725 52.6553 17.1108 52.892C17.2491 53.1288 17.3182 53.3845 17.3182 53.6591C17.3182 53.9867 17.232 54.2661 17.0597 54.4972C16.8892 54.7282 16.6572 54.8883 16.3636 54.9773V55.0227C16.7311 55.0833 17.018 55.2396 17.2244 55.4915C17.4309 55.7415 17.5341 56.0511 17.5341 56.4205C17.5341 56.7367 17.4479 57.0208 17.2756 57.2727C17.1051 57.5227 16.8722 57.7197 16.5767 57.8636C16.2813 58.0076 15.9451 58.0795 15.5682 58.0795Z"
        fill="#c4c4c4" />
    <path
        d="M56.4545 52.1023C56.6932 52.1042 56.9318 52.1496 57.1705 52.2386C57.4091 52.3277 57.6269 52.4754 57.8239 52.6818C58.0208 52.8864 58.179 53.1657 58.2983 53.5199C58.4176 53.8741 58.4773 54.3182 58.4773 54.8523C58.4773 55.3693 58.428 55.8286 58.3295 56.2301C58.233 56.6297 58.0928 56.9669 57.9091 57.2415C57.7273 57.5161 57.5057 57.7244 57.2443 57.8665C56.9848 58.0085 56.6913 58.0795 56.3636 58.0795C56.0379 58.0795 55.7472 58.0152 55.4915 57.8864C55.2377 57.7557 55.0294 57.5748 54.8665 57.3438C54.7055 57.1108 54.6023 56.8409 54.5568 56.5341H55.25C55.3125 56.8011 55.4366 57.0218 55.6222 57.196C55.8097 57.3684 56.0568 57.4545 56.3636 57.4545C56.8125 57.4545 57.1667 57.2585 57.4261 56.8665C57.6875 56.4744 57.8182 55.9205 57.8182 55.2045H57.7727C57.6667 55.3636 57.5407 55.5009 57.3949 55.6165C57.2491 55.732 57.0871 55.821 56.9091 55.8835C56.7311 55.946 56.5417 55.9773 56.3409 55.9773C56.0076 55.9773 55.7017 55.8949 55.4233 55.7301C55.1468 55.5634 54.9252 55.3352 54.7585 55.0455C54.5938 54.7538 54.5114 54.4205 54.5114 54.0455C54.5114 53.6894 54.5909 53.3636 54.75 53.0682C54.911 52.7708 55.1364 52.5341 55.4261 52.358C55.7178 52.1818 56.0606 52.0966 56.4545 52.1023ZM56.4545 52.7273C56.2159 52.7273 56.0009 52.7869 55.8097 52.9062C55.6203 53.0237 55.4697 53.1828 55.358 53.3835C55.2481 53.5824 55.1932 53.803 55.1932 54.0455C55.1932 54.2879 55.2462 54.5085 55.3523 54.7074C55.4602 54.9044 55.607 55.0616 55.7926 55.179C55.9801 55.2945 56.1932 55.3523 56.4318 55.3523C56.6117 55.3523 56.7794 55.3172 56.9347 55.2472C57.09 55.1752 57.2254 55.0777 57.3409 54.9545C57.4583 54.8295 57.5502 54.6884 57.6165 54.5312C57.6828 54.3722 57.7159 54.2064 57.7159 54.0341C57.7159 53.8068 57.661 53.5937 57.5511 53.3949C57.4432 53.196 57.2936 53.035 57.1023 52.9119C56.9129 52.7888 56.697 52.7273 56.4545 52.7273Z"
        fill="#c4c4c4" />
    <path
        d="M36.5341 58.0795C36.2955 58.0758 36.0568 58.0303 35.8182 57.9432C35.5795 57.8561 35.3617 57.7093 35.1648 57.5028C34.9678 57.2945 34.8097 57.0133 34.6903 56.6591C34.571 56.303 34.5114 55.8561 34.5114 55.3182C34.5114 54.803 34.5597 54.3466 34.6562 53.9489C34.7528 53.5492 34.893 53.2131 35.0767 52.9403C35.2604 52.6657 35.482 52.4574 35.7415 52.3153C36.0028 52.1733 36.2973 52.1023 36.625 52.1023C36.9508 52.1023 37.2405 52.1676 37.4943 52.2983C37.75 52.4271 37.9583 52.607 38.1193 52.8381C38.2803 53.0691 38.3845 53.3352 38.4318 53.6364H37.7386C37.6742 53.375 37.5492 53.1581 37.3636 52.9858C37.178 52.8134 36.9318 52.7273 36.625 52.7273C36.1742 52.7273 35.8191 52.9233 35.5597 53.3153C35.3021 53.7074 35.1723 54.2576 35.1705 54.9659H35.2159C35.322 54.8049 35.4479 54.6676 35.5938 54.554C35.7415 54.4384 35.9044 54.3494 36.0824 54.2869C36.2604 54.2244 36.4489 54.1932 36.6477 54.1932C36.9811 54.1932 37.286 54.2765 37.5625 54.4432C37.839 54.608 38.0606 54.8362 38.2273 55.1278C38.3939 55.4176 38.4773 55.75 38.4773 56.125C38.4773 56.4848 38.3968 56.8144 38.2358 57.1136C38.0748 57.411 37.8485 57.6477 37.5568 57.8239C37.267 57.9981 36.9261 58.0833 36.5341 58.0795ZM36.5341 57.4545C36.7727 57.4545 36.9867 57.3949 37.1761 57.2756C37.3674 57.1562 37.518 56.9962 37.6278 56.7955C37.7396 56.5947 37.7955 56.3712 37.7955 56.125C37.7955 55.8845 37.7415 55.6657 37.6335 55.4688C37.5275 55.2699 37.3807 55.1117 37.1932 54.9943C37.0076 54.8769 36.7955 54.8182 36.5568 54.8182C36.3769 54.8182 36.2093 54.8542 36.054 54.9261C35.8987 54.9962 35.7623 55.0928 35.6449 55.2159C35.5294 55.339 35.4384 55.4801 35.3722 55.6392C35.3059 55.7964 35.2727 55.9621 35.2727 56.1364C35.2727 56.3674 35.3267 56.5833 35.4347 56.7841C35.5445 56.9848 35.6941 57.1468 35.8835 57.2699C36.0748 57.393 36.2917 57.4545 36.5341 57.4545Z"
        fill="#c4c4c4" />
    <path
        d="M36.4205 38.0795C36.0871 38.0795 35.7869 38.0133 35.5199 37.8807C35.2528 37.7481 35.0388 37.5663 34.8778 37.3352C34.7169 37.1042 34.6288 36.8409 34.6136 36.5455H35.2955C35.322 36.8087 35.4413 37.0265 35.6534 37.1989C35.8674 37.3693 36.1231 37.4545 36.4205 37.4545C36.6591 37.4545 36.8712 37.3987 37.0568 37.2869C37.2443 37.1752 37.3911 37.0218 37.4972 36.8267C37.6051 36.6297 37.6591 36.4072 37.6591 36.1591C37.6591 35.9053 37.6032 35.679 37.4915 35.4801C37.3816 35.2794 37.2301 35.1212 37.0369 35.0057C36.8438 34.8902 36.6231 34.8314 36.375 34.8295C36.197 34.8277 36.0142 34.8551 35.8267 34.9119C35.6392 34.9669 35.4848 35.0379 35.3636 35.125L34.7045 35.0455L35.0568 32.1818H38.0795V32.8068H35.6477L35.4432 34.5227H35.4773C35.5966 34.428 35.7462 34.3494 35.9261 34.2869C36.1061 34.2244 36.2936 34.1932 36.4886 34.1932C36.8447 34.1932 37.1619 34.2784 37.4403 34.4489C37.7206 34.6174 37.9403 34.8485 38.0994 35.142C38.2604 35.4356 38.3409 35.7708 38.3409 36.1477C38.3409 36.5189 38.2576 36.8504 38.0909 37.142C37.9261 37.4318 37.6989 37.661 37.4091 37.8295C37.1193 37.9962 36.7898 38.0795 36.4205 38.0795Z"
        fill="#c4c4c4" />
    <path
        d="M13.6023 38V37.4886L15.5227 35.3864C15.7481 35.1402 15.9337 34.9261 16.0795 34.7443C16.2254 34.5606 16.3333 34.3883 16.4034 34.2273C16.4754 34.0644 16.5114 33.8939 16.5114 33.7159C16.5114 33.5114 16.4621 33.3343 16.3636 33.1847C16.267 33.035 16.1345 32.9195 15.9659 32.8381C15.7973 32.7566 15.608 32.7159 15.3977 32.7159C15.1742 32.7159 14.9792 32.7623 14.8125 32.8551C14.6477 32.946 14.5199 33.0739 14.429 33.2386C14.34 33.4034 14.2955 33.5966 14.2955 33.8182H13.625C13.625 33.4773 13.7036 33.178 13.8608 32.9205C14.018 32.6629 14.232 32.4621 14.5028 32.3182C14.7756 32.1742 15.0814 32.1023 15.4205 32.1023C15.7614 32.1023 16.0634 32.1742 16.3267 32.3182C16.59 32.4621 16.7964 32.6562 16.946 32.9006C17.0956 33.1449 17.1705 33.4167 17.1705 33.7159C17.1705 33.9299 17.1316 34.1392 17.054 34.3438C16.9782 34.5464 16.8456 34.7727 16.6562 35.0227C16.4688 35.2708 16.2083 35.5739 15.875 35.9318L14.5682 37.3295V37.375H17.2727V38H13.6023Z"
        fill="#c4c4c4" />
    <path d="M54.7841 18L57.3864 12.8523V12.8068H54.3864V12.1818H58.1136V12.8409L55.5227 18H54.7841Z"
        fill="#c4c4c4" />
    <path
        d="M56.4659 38.0795C56.0758 38.0795 55.7311 38.0104 55.4318 37.8722C55.1345 37.732 54.9025 37.5398 54.7358 37.2955C54.5691 37.0492 54.4867 36.7689 54.4886 36.4545C54.4867 36.2083 54.535 35.9811 54.6335 35.7727C54.732 35.5625 54.8665 35.3873 55.0369 35.2472C55.2093 35.1051 55.4015 35.0152 55.6136 34.9773V34.9432C55.3352 34.8712 55.1136 34.715 54.9489 34.4744C54.7841 34.232 54.7027 33.9564 54.7045 33.6477C54.7027 33.3523 54.7775 33.0881 54.929 32.8551C55.0805 32.6222 55.2888 32.4384 55.554 32.304C55.821 32.1695 56.125 32.1023 56.4659 32.1023C56.803 32.1023 57.1042 32.1695 57.3693 32.304C57.6345 32.4384 57.8428 32.6222 57.9943 32.8551C58.1477 33.0881 58.2254 33.3523 58.2273 33.6477C58.2254 33.9564 58.1411 34.232 57.9744 34.4744C57.8097 34.715 57.5909 34.8712 57.3182 34.9432V34.9773C57.5284 35.0152 57.7178 35.1051 57.8864 35.2472C58.0549 35.3873 58.1894 35.5625 58.2898 35.7727C58.3902 35.9811 58.4413 36.2083 58.4432 36.4545C58.4413 36.7689 58.3561 37.0492 58.1875 37.2955C58.0208 37.5398 57.7888 37.732 57.4915 37.8722C57.196 38.0104 56.8542 38.0795 56.4659 38.0795ZM56.4659 37.4545C56.7292 37.4545 56.9564 37.4119 57.1477 37.3267C57.339 37.2415 57.4867 37.1212 57.5909 36.9659C57.6951 36.8106 57.7481 36.6288 57.75 36.4205C57.7481 36.2008 57.6913 36.0066 57.5795 35.8381C57.4678 35.6695 57.3153 35.5369 57.1222 35.4403C56.9309 35.3437 56.7121 35.2955 56.4659 35.2955C56.2178 35.2955 55.9962 35.3437 55.8011 35.4403C55.608 35.5369 55.4555 35.6695 55.3438 35.8381C55.2339 36.0066 55.1799 36.2008 55.1818 36.4205C55.1799 36.6288 55.2301 36.8106 55.3324 36.9659C55.4366 37.1212 55.5852 37.2415 55.7784 37.3267C55.9716 37.4119 56.2008 37.4545 56.4659 37.4545ZM56.4659 34.6932C56.6742 34.6932 56.8589 34.6515 57.0199 34.5682C57.1828 34.4848 57.3106 34.3684 57.4034 34.2188C57.4962 34.0691 57.5436 33.8939 57.5455 33.6932C57.5436 33.4962 57.4972 33.3248 57.4062 33.179C57.3153 33.0312 57.1894 32.9176 57.0284 32.8381C56.8674 32.7566 56.6799 32.7159 56.4659 32.7159C56.2481 32.7159 56.0578 32.7566 55.8949 32.8381C55.732 32.9176 55.6061 33.0312 55.517 33.179C55.428 33.3248 55.3845 33.4962 55.3864 33.6932C55.3845 33.8939 55.429 34.0691 55.5199 34.2188C55.6127 34.3684 55.7405 34.4848 55.9034 34.5682C56.0663 34.6515 56.2538 34.6932 56.4659 34.6932Z"
        fill="#c4c4c4" />
    <path d="M16.6477 12.1818V18H15.9432V12.9205H15.9091L14.4886 13.8636V13.1477L15.9432 12.1818H16.6477Z"
        fill="#c4c4c4" />
</svg>