<?xml version="1.0" encoding="utf-8"?>
<!-- Generator: Adobe Illustrator 25.2.0, SVG Export Plug-In . SVG Version: 6.00 Build 0)  -->
<svg version="1.1" id="Capa_1" xmlns="http://www.w3.org/2000/svg" xmlns:xlink="http://www.w3.org/1999/xlink" x="0px" y="0px"
	 viewBox="0 0 56 56" style="enable-background:new 0 0 56 56;" xml:space="preserve">
<style type="text/css">
	.st0{fill:#77917F;}
</style>
<g>
	<path class="st0" d="M8,41.1V2c0-0.6-0.4-1-1-1S6,1.4,6,2v39.1c-3.4,0.5-6,3.4-6,6.9c0,3.9,3.1,7,7,7s7-3.1,7-7
		C14,44.5,11.4,41.6,8,41.1z M7,53c-2.8,0-5-2.2-5-5s2.2-5,5-5s5,2.2,5,5S9.8,53,7,53z"/>
	<path class="st0" d="M29,20.7V2c0-0.6-0.4-1-1-1s-1,0.4-1,1v18.6c-3.6,0.4-6.4,3.5-6.4,7.2s2.8,6.8,6.4,7.2v19c0,0.6,0.4,1,1,1
		s1-0.4,1-1V34.9c3.4-0.6,6-3.5,6-7.1S32.4,21.3,29,20.7z M27.8,33c-2.9,0-5.2-2.3-5.2-5.2s2.3-5.2,5.2-5.2s5.2,2.3,5.2,5.2
		S30.7,33,27.8,33z"/>
	<path class="st0" d="M56,8c0-3.9-3.1-7-7-7s-7,3.1-7,7c0,3.5,2.6,6.4,6,6.9V54c0,0.6,0.4,1,1,1s1-0.4,1-1V14.9
		C53.4,14.4,56,11.5,56,8z M49,13c-2.8,0-5-2.2-5-5s2.2-5,5-5s5,2.2,5,5S51.8,13,49,13z"/>
</g>
</svg>
