<?xml version="1.0" encoding="utf-8"?>
<!-- Generator: Adobe Illustrator 25.2.0, SVG Export Plug-In . SVG Version: 6.00 Build 0)  -->
<svg version="1.1" id="Layer_1" xmlns="http://www.w3.org/2000/svg" xmlns:xlink="http://www.w3.org/1999/xlink" x="0px" y="0px"
	 viewBox="0 0 303 443" style="enable-background:new 0 0 303 443;" xml:space="preserve">
<style type="text/css">
	.st0{fill:#F9F7E8;}
</style>
<g>
	<g id="XMLID_2990_">
		
			<rect id="XMLID_2991_" x="183.8" y="113.8" transform="matrix(0.9154 -0.4026 0.4026 0.9154 -92.5461 100.3114)" class="st0" width="17" height="313"/>
	</g>
	<g id="XMLID_2988_">
		<path id="XMLID_2989_" class="st0" d="M231.4,166.7c-0.7,1.8-2.7,2.7-4.5,2L29.2,91.8c-1.8-0.7-2.7-2.7-2-4.5
			c0.7-1.8,2.7-2.7,4.5-2l197.6,76.9C231.2,162.9,232.1,164.9,231.4,166.7z"/>
	</g>
	<g id="XMLID_2986_">
		<path id="XMLID_2987_" class="st0" d="M171,29.5L94.1,227.1c-0.7,1.8-2.7,2.7-4.5,2c-1.8-0.7-2.7-2.7-2-4.5l76.9-197.6
			c0.7-1.8,2.7-2.7,4.5-2C170.9,25.6,171.7,27.7,171,29.5z"/>
	</g>
	<g id="XMLID_2984_">
		<path id="XMLID_2985_" class="st0" d="M229.7,85.6c-0.3,0.8-1,1.5-1.9,1.9L33.7,172.9c-1.8,0.8-3.8,0-4.6-1.8
			c-0.8-1.8,0-3.8,1.8-4.6L225,81.1c1.8-0.8,3.8,0,4.6,1.8C230,83.8,230,84.8,229.7,85.6z"/>
	</g>
	<g id="XMLID_2982_">
		<path id="XMLID_2983_" class="st0" d="M175.3,225.4c-0.3,0.8-1,1.5-1.9,1.9c-1.8,0.8-3.8,0-4.6-1.8L83.4,31.4
			c-0.8-1.8,0-3.8,1.8-4.6c1.8-0.8,3.8,0,4.6,1.8l85.4,194.1C175.6,223.6,175.6,224.5,175.3,225.4z"/>
	</g>
</g>
</svg>
