<?xml version="1.0" encoding="utf-8"?>
<!-- Generator: Adobe Illustrator 25.2.0, SVG Export Plug-In . SVG Version: 6.00 Build 0)  -->
<svg version="1.1" id="Capa_1" xmlns="http://www.w3.org/2000/svg" xmlns:xlink="http://www.w3.org/1999/xlink" x="0px" y="0px"
	 viewBox="0 0 51.6 51.6" style="enable-background:new 0 0 51.6 51.6;" xml:space="preserve">
<style type="text/css">
	.st0{fill:#77917F;}
</style>
<g>
	<g>
		<path class="st0" d="M-644.3,1894.7h-36.8c-3,0-5.5,2.5-5.5,5.5v36.7c0,3,2.5,5.5,5.5,5.5h36.7c3,0,5.5-2.5,5.5-5.5v-36.7
			C-638.8,1897.2-641.3,1894.7-644.3,1894.7z M-640.7,1900.2v9.8h-13.4v-13.4h9.8C-642.3,1896.6-640.7,1898.2-640.7,1900.2z
			 M-669.4,1925.3v-13.4h13.5v13.5L-669.4,1925.3L-669.4,1925.3z M-656,1927.2v13.4h-13.4v-13.4H-656z M-671.3,1925.3h-13.4v-13.4
			h13.4C-671.3,1911.9-671.3,1925.3-671.3,1925.3z M-669.4,1910v-13.4h13.5v13.4C-655.9,1910-669.4,1910-669.4,1910z M-654.1,1911.9
			h13.4v13.5h-13.4V1911.9z M-681.1,1896.6h9.8v13.4h-13.4v-9.8C-684.7,1898.2-683.1,1896.6-681.1,1896.6z M-684.7,1937v-9.8h13.4
			v13.4h-9.8C-683.1,1940.6-684.7,1939-684.7,1937z M-644.3,1940.6h-9.8v-13.4h13.4v9.8C-640.7,1939-642.3,1940.6-644.3,1940.6z"/>
		<g>
			<path class="st0" d="M-681.7,1905.2v-3.3l-0.9,0.5v-0.9l1-0.5h0.7v4.2H-681.7z"/>
			<path class="st0" d="M-679.3,1905.2v-3.3l-0.9,0.5v-0.9l1-0.5h0.7v4.2H-679.3z"/>
			<path class="st0" d="M-677,1905.2v-3.3l-0.9,0.5v-0.9l1-0.5h0.7v4.2H-677z"/>
			<path class="st0" d="M-674.7,1905.2v-3.3l-0.8,0.5v-0.9l1-0.5h0.7v4.2H-674.7z"/>
		</g>
		<g>
			<path class="st0" d="M-681.3,1920.5v-0.6l1.2-1.1c0.3-0.3,0.5-0.5,0.6-0.6c0.1-0.2,0.2-0.3,0.2-0.5c0-0.4-0.3-0.6-0.7-0.6
				c-0.4,0-0.8,0.2-1.1,0.5v-0.9c0.3-0.3,0.7-0.4,1.2-0.4c0.4,0,0.8,0.1,1,0.4c0.3,0.2,0.4,0.5,0.4,0.9c0,0.3-0.1,0.6-0.2,0.8
				c-0.1,0.2-0.4,0.5-0.7,0.8l-0.7,0.7h1.8v0.8h-3C-681.3,1920.7-681.3,1920.5-681.3,1920.5z"/>
			<path class="st0" d="M-677.8,1920.5v-0.6l1.2-1.1c0.3-0.3,0.5-0.5,0.6-0.6c0.1-0.2,0.2-0.3,0.2-0.5c0-0.4-0.3-0.6-0.7-0.6
				c-0.4,0-0.8,0.2-1.1,0.5v-0.9c0.3-0.3,0.7-0.4,1.2-0.4c0.4,0,0.8,0.1,1,0.4c0.3,0.2,0.4,0.5,0.4,0.9c0,0.3-0.1,0.6-0.2,0.8
				c-0.1,0.2-0.4,0.5-0.7,0.8l-0.7,0.7h1.8v0.8h-3V1920.5z"/>
		</g>
		<g>
			<path class="st0" d="M-679.5,1935.5v-0.8c0.4,0.3,0.8,0.4,1.2,0.4c0.5,0,0.9-0.3,0.9-0.7c0-0.4-0.3-0.7-0.8-0.7
				c-0.2,0-0.4,0-0.6,0.1v-0.6l1-0.9h-1.6v-0.7h2.7v0.6l-0.9,0.9c0.3,0.1,0.6,0.2,0.8,0.4c0.2,0.2,0.3,0.5,0.3,0.9
				c0,0.5-0.2,0.8-0.5,1.1c-0.3,0.3-0.7,0.4-1.2,0.4S-679.1,1935.8-679.5,1935.5z"/>
		</g>
		<g>
			<path class="st0" d="M-662.8,1905.2v-1h-2.1v-0.6l2.1-2.5h0.9v2.5h0.6v0.7h-0.6v1L-662.8,1905.2L-662.8,1905.2z M-664,1903.4h1.2
				v-1.3L-664,1903.4z"/>
		</g>
		<g>
			<path class="st0" d="M-665.9,1920.3v-0.8c0.4,0.2,0.7,0.3,1.2,0.3s0.9-0.3,0.9-0.7s-0.4-0.7-0.9-0.7c-0.3,0-0.7,0.1-1,0.2
				l0.3-2.3h2.2v0.7h-1.6l-0.1,0.7c0.1,0,0.3,0,0.4,0c0.5,0,0.8,0.1,1.1,0.4c0.3,0.3,0.4,0.6,0.4,1c0,0.5-0.2,0.8-0.5,1.1
				s-0.7,0.4-1.2,0.4S-665.6,1920.5-665.9,1920.3z"/>
			<path class="st0" d="M-662.4,1920.3v-0.8c0.4,0.2,0.7,0.3,1.2,0.3s0.9-0.3,0.9-0.7s-0.4-0.7-0.9-0.7c-0.3,0-0.7,0.1-1,0.2
				l0.3-2.3h2.2v0.7h-1.6l-0.2,0.7c0.1,0,0.3,0,0.4,0c0.5,0,0.8,0.1,1.1,0.4c0.3,0.3,0.5,0.6,0.5,1c0,0.5-0.2,0.8-0.5,1.1
				c-0.3,0.3-0.8,0.4-1.2,0.4C-661.7,1920.6-662.1,1920.5-662.4,1920.3z"/>
		</g>
		<g>
			<path class="st0" d="M-663.6,1934.5v-0.8h1.9v0.8H-663.6z"/>
		</g>
		<g>
			<path class="st0" d="M-648.6,1905.2l1.7-3.4h-2v-0.8h3v0.7l-1.8,3.5H-648.6z"/>
		</g>
		<g>
			<path class="st0" d="M-645.7,1919.3c0,0.4-0.2,0.7-0.5,0.9c-0.3,0.2-0.7,0.3-1.2,0.3s-0.9-0.1-1.2-0.3c-0.3-0.2-0.5-0.5-0.5-0.9
				c0-0.5,0.3-0.9,0.8-1c-0.4-0.2-0.6-0.5-0.6-0.9c0-0.3,0.1-0.6,0.4-0.8c0.3-0.2,0.6-0.3,1.1-0.3s0.8,0.1,1.1,0.3
				c0.3,0.2,0.4,0.5,0.4,0.8c0,0.4-0.2,0.7-0.6,0.9C-646,1918.4-645.7,1918.8-645.7,1919.3z M-647.4,1918.6c-0.5,0-0.8,0.3-0.8,0.6
				c0,0.3,0.3,0.6,0.8,0.6c0.4,0,0.8-0.3,0.8-0.6S-646.9,1918.6-647.4,1918.6z M-647.4,1918c0.4,0,0.6-0.2,0.6-0.5
				c0-0.3-0.3-0.5-0.6-0.5c-0.4,0-0.7,0.2-0.7,0.5C-648,1917.8-647.8,1918-647.4,1918z"/>
		</g>
		<g>
			<path class="st0" d="M-645.8,1933.5c0,1.2-0.6,2.4-1.9,2.4c-0.4,0-0.7-0.1-0.9-0.3v-0.8c0.3,0.2,0.5,0.3,0.9,0.3
				c0.3,0,0.6-0.1,0.8-0.3c0.2-0.2,0.3-0.5,0.3-0.8c-0.2,0.3-0.5,0.4-1,0.4c-0.4,0-0.7-0.1-1-0.4c-0.3-0.2-0.4-0.6-0.4-1
				c0-0.4,0.1-0.8,0.4-1.1c0.3-0.3,0.7-0.4,1.1-0.4C-646.4,1931.5-645.8,1932.3-645.8,1933.5z M-648.2,1933c0,0.4,0.3,0.7,0.7,0.7
				c0.3,0,0.6-0.2,0.8-0.5c0-0.6-0.3-0.9-0.8-0.9C-647.9,1932.3-648.2,1932.5-648.2,1933z"/>
		</g>
	</g>
</g>
<g>
	<g>
		<path class="st0" d="M44.2,1.9H7.4c-3,0-5.5,2.5-5.5,5.5v36.7c0,3,2.5,5.5,5.5,5.5h36.7c3,0,5.5-2.5,5.5-5.5V7.4
			C49.7,4.4,47.2,1.9,44.2,1.9z M47.8,7.4v9.8H34.4V3.8h9.8C46.2,3.8,47.8,5.4,47.8,7.4z M19.1,32.5V19.1h13.5v13.5L19.1,32.5
			L19.1,32.5z M32.5,34.5v13.4H19.1V34.5H32.5z M17.2,32.5H3.8V19.1h13.4C17.2,19.1,17.2,32.5,17.2,32.5z M19.1,17.2V3.8h13.5v13.4
			C32.6,17.2,19.1,17.2,19.1,17.2z M34.4,19.1h13.4v13.5H34.4V19.1z M7.4,3.8h9.8v13.4H3.8V7.4C3.8,5.4,5.4,3.8,7.4,3.8z M3.8,44.2
			v-9.8h13.4v13.4H7.4C5.4,47.8,3.8,46.2,3.8,44.2z M44.2,47.8h-9.8V34.5h13.4v9.8C47.8,46.2,46.2,47.8,44.2,47.8z"/>
		<g>
			<path class="st0" d="M6.8,12.4V9.1L5.9,9.6V8.7l1-0.5h0.7v4.2H6.8z"/>
			<path class="st0" d="M9.2,12.4V9.1L8.3,9.6V8.7l1-0.5H10v4.2H9.2z"/>
			<path class="st0" d="M11.5,12.4V9.1l-0.9,0.5V8.7l1-0.5h0.7v4.2H11.5z"/>
			<path class="st0" d="M13.8,12.4V9.1L13,9.6V8.7l1-0.5h0.7v4.2H13.8z"/>
		</g>
		<g>
			<path class="st0" d="M7.2,27.7v-0.6L8.4,26c0.3-0.3,0.5-0.5,0.6-0.6c0.1-0.2,0.2-0.3,0.2-0.5c0-0.4-0.3-0.6-0.7-0.6
				s-0.8,0.2-1.1,0.5v-0.9c0.3-0.3,0.7-0.4,1.2-0.4c0.4,0,0.8,0.1,1,0.4c0.3,0.2,0.4,0.5,0.4,0.9c0,0.3-0.1,0.6-0.2,0.8
				c-0.1,0.2-0.4,0.5-0.7,0.8l-0.7,0.7h1.8v0.8h-3C7.2,27.9,7.2,27.7,7.2,27.7z"/>
			<path class="st0" d="M10.7,27.7v-0.6l1.2-1.1c0.3-0.3,0.5-0.5,0.6-0.6c0.1-0.2,0.2-0.3,0.2-0.5c0-0.4-0.3-0.6-0.7-0.6
				s-0.8,0.2-1.1,0.5v-0.9c0.3-0.3,0.7-0.4,1.2-0.4c0.4,0,0.8,0.1,1,0.4c0.3,0.2,0.4,0.5,0.4,0.9c0,0.3-0.1,0.6-0.2,0.8
				c-0.1,0.2-0.4,0.5-0.7,0.8l-0.7,0.7h1.8v0.8h-3V27.7z"/>
		</g>
		<g>
			<path class="st0" d="M9,42.8V42c0.4,0.3,0.8,0.4,1.2,0.4c0.5,0,0.9-0.3,0.9-0.7S10.8,41,10.3,41c-0.2,0-0.4,0-0.6,0.1v-0.6l1-0.9
				H9.1v-0.7h2.7v0.6l-0.9,0.9c0.3,0.1,0.6,0.2,0.8,0.4s0.3,0.5,0.3,0.9c0,0.5-0.2,0.8-0.5,1.1s-0.7,0.4-1.2,0.4
				C9.8,43.1,9.4,43,9,42.8z"/>
		</g>
		<g>
			<path class="st0" d="M25.7,12.4v-1h-2.1v-0.6l2.1-2.5h0.9v2.5h0.6v0.7h-0.6v1L25.7,12.4L25.7,12.4z M24.5,10.6h1.2V9.3L24.5,10.6
				z"/>
		</g>
		<g>
			<path class="st0" d="M22.6,27.5v-0.8c0.4,0.2,0.7,0.3,1.2,0.3s0.9-0.3,0.9-0.7c0-0.4-0.4-0.7-0.9-0.7c-0.3,0-0.7,0.1-1,0.2
				l0.3-2.3h2.2v0.7h-1.6l-0.1,0.7c0.1,0,0.3,0,0.4,0c0.5,0,0.8,0.1,1.1,0.4c0.3,0.3,0.4,0.6,0.4,1c0,0.5-0.2,0.8-0.5,1.1
				c-0.3,0.3-0.7,0.4-1.2,0.4C23.3,27.8,22.9,27.7,22.6,27.5z"/>
			<path class="st0" d="M26.1,27.5v-0.8c0.4,0.2,0.7,0.3,1.2,0.3s0.9-0.3,0.9-0.7c0-0.4-0.4-0.7-0.9-0.7c-0.3,0-0.7,0.1-1,0.2
				l0.3-2.3h2.2v0.7h-1.6L27,24.9c0.1,0,0.3,0,0.4,0c0.5,0,0.8,0.1,1.1,0.4c0.3,0.3,0.5,0.6,0.5,1c0,0.5-0.2,0.8-0.5,1.1
				c-0.3,0.3-0.8,0.4-1.2,0.4C26.8,27.8,26.4,27.7,26.1,27.5z"/>
		</g>
		<g>
			<path class="st0" d="M24.9,41.8V41h1.9v0.8H24.9z"/>
		</g>
		<g>
			<path class="st0" d="M39.9,12.4L41.6,9h-2V8.2h3v0.7l-1.8,3.5H39.9z"/>
		</g>
		<g>
			<path class="st0" d="M42.8,26.5c0,0.4-0.2,0.7-0.5,0.9c-0.3,0.2-0.7,0.3-1.2,0.3s-0.9-0.1-1.2-0.3c-0.3-0.2-0.5-0.5-0.5-0.9
				c0-0.5,0.3-0.9,0.8-1c-0.4-0.2-0.6-0.5-0.6-0.9c0-0.3,0.1-0.6,0.4-0.8c0.3-0.2,0.6-0.3,1.1-0.3s0.8,0.1,1.1,0.3
				c0.3,0.2,0.4,0.5,0.4,0.8c0,0.4-0.2,0.7-0.6,0.9C42.5,25.6,42.8,26,42.8,26.5z M41.1,25.8c-0.5,0-0.8,0.3-0.8,0.6
				c0,0.3,0.3,0.6,0.8,0.6c0.4,0,0.8-0.3,0.8-0.6C41.9,26.1,41.6,25.8,41.1,25.8z M41.1,25.2c0.4,0,0.6-0.2,0.6-0.5
				s-0.3-0.5-0.6-0.5c-0.4,0-0.7,0.2-0.7,0.5C40.5,25,40.7,25.2,41.1,25.2z"/>
		</g>
		<g>
			<path class="st0" d="M42.7,40.8c0,1.2-0.6,2.4-1.9,2.4c-0.4,0-0.7-0.1-0.9-0.3V42c0.3,0.2,0.5,0.3,0.9,0.3c0.3,0,0.6-0.1,0.8-0.3
				s0.3-0.5,0.3-0.8c-0.2,0.3-0.5,0.4-1,0.4c-0.4,0-0.7-0.1-1-0.4c-0.3-0.2-0.4-0.6-0.4-1s0.1-0.8,0.4-1.1c0.3-0.3,0.7-0.4,1.1-0.4
				C42.1,38.8,42.7,39.5,42.7,40.8z M40.3,40.2c0,0.4,0.3,0.7,0.7,0.7c0.3,0,0.6-0.2,0.8-0.5c0-0.6-0.3-0.9-0.8-0.9
				C40.6,39.5,40.3,39.8,40.3,40.2z"/>
		</g>
	</g>
</g>
</svg>
