<svg width="64" height="64" viewBox="0 0 64 64" fill="none" xmlns="http://www.w3.org/2000/svg">
<path d="M28.9038 44.3566L28.3736 44.3205L28.047 44.7399L23.5126 50.5627L23.4857 50.5972L23.462 50.6339L23.4619 50.6341L23.4615 50.6347L23.4597 50.6375L23.452 50.6494L23.4212 50.6967C23.394 50.7385 23.3538 50.8 23.3022 50.8786C23.1991 51.0358 23.0505 51.2608 22.8698 51.531C22.5079 52.072 22.0189 52.7911 21.5078 53.5081C21.0843 54.1022 20.6542 54.6827 20.273 55.1563C20.2537 55.025 20.2344 54.8855 20.2151 54.7384C20.051 53.4881 19.9007 51.8055 19.773 50.1046C19.6457 48.4079 19.5421 46.7094 19.4703 45.4341C19.4344 44.7967 19.4065 44.2656 19.3876 43.8941C19.3781 43.7084 19.3709 43.5626 19.3661 43.4633L19.3606 43.3502L19.3592 43.3214L19.3589 43.3143L19.3588 43.3125L19.3588 43.3121C19.3588 43.312 19.3588 43.312 18.3599 43.3589L19.3588 43.312L19.3265 42.623L18.6709 42.4085C12.158 40.2772 7.24644 36.7005 4.77741 32.4853C2.33749 28.3198 2.40981 23.7606 4.99313 19.6196C7.60609 15.431 12.642 11.919 19.2264 9.87606C25.7985 7.837 33.3412 7.44246 40.3578 8.77894C47.3832 10.1171 53.2866 13.0757 56.9661 16.9896C60.6237 20.8801 61.8049 25.3993 60.4635 29.7018C59.1071 34.0527 55.211 38.0552 49.3434 40.8204C43.4874 43.5801 36.1943 44.8522 28.9038 44.3566Z" stroke="#77917F" stroke-width="2"/>
<path d="M26 20.773C26 14.409 36 14.409 36 20.773C36 25.3183 31.4547 24.409 31.4547 29.8637M31.4667 35.3463L31.48 35.3317" stroke="#77917F" stroke-width="2" stroke-linecap="round" stroke-linejoin="round"/>
</svg>
