<svg width="64" height="64" viewBox="0 0 64 64" fill="none" xmlns="http://www.w3.org/2000/svg">
<rect x="2" y="2" width="60" height="60" rx="5" stroke="#77917F" stroke-width="2"/>
<path d="M22 3L22 61" stroke="#77917F" stroke-width="2"/>
<path d="M3 22H61" stroke="#77917F" stroke-width="2"/>
<path d="M3 42H61" stroke="#77917F" stroke-width="2"/>
<path d="M42 3V61" stroke="#77917F" stroke-width="2"/>
<path d="M28.6989 15.2102V14.3409L32.5341 8.27273H33.1648V9.61932H32.7386L29.8409 14.2045V14.2727H35.0057V15.2102H28.6989ZM32.8068 17V14.946V14.5412V8.27273H33.8125V17H32.8068Z" fill="#77917F"/>
<path d="M11.8523 55.1193C11.2898 55.1193 10.7884 55.0227 10.348 54.8295C9.91051 54.6364 9.5625 54.3679 9.30398 54.0241C9.0483 53.6776 8.90909 53.2756 8.88636 52.8182H9.96023C9.98295 53.0994 10.0795 53.3423 10.25 53.5469C10.4205 53.7486 10.6435 53.9048 10.919 54.0156C11.1946 54.1264 11.5 54.1818 11.8352 54.1818C12.2102 54.1818 12.5426 54.1165 12.8324 53.9858C13.1222 53.8551 13.3494 53.6733 13.5142 53.4403C13.679 53.2074 13.7614 52.9375 13.7614 52.6307C13.7614 52.3097 13.6818 52.027 13.5227 51.7827C13.3636 51.5355 13.1307 51.3423 12.8239 51.2031C12.517 51.0639 12.142 50.9943 11.6989 50.9943H11V50.0568H11.6989C12.0455 50.0568 12.3494 49.9943 12.6108 49.8693C12.875 49.7443 13.081 49.5682 13.2287 49.3409C13.3793 49.1136 13.4545 48.8466 13.4545 48.5398C13.4545 48.2443 13.3892 47.9872 13.2585 47.7685C13.1278 47.5497 12.9432 47.3793 12.7045 47.2571C12.4688 47.1349 12.1903 47.0739 11.8693 47.0739C11.5682 47.0739 11.2841 47.1293 11.017 47.2401C10.7528 47.348 10.5369 47.5057 10.3693 47.7131C10.2017 47.9176 10.1108 48.1648 10.0966 48.4545H9.07386C9.09091 47.9972 9.22869 47.5966 9.48722 47.2528C9.74574 46.9062 10.0838 46.6364 10.5014 46.4432C10.9219 46.25 11.3835 46.1534 11.8864 46.1534C12.4261 46.1534 12.8892 46.2628 13.2756 46.4815C13.6619 46.6974 13.9588 46.983 14.1662 47.3381C14.3736 47.6932 14.4773 48.0767 14.4773 48.4886C14.4773 48.9801 14.348 49.3991 14.0895 49.7457C13.8338 50.0923 13.4858 50.3324 13.0455 50.4659V50.5341C13.5966 50.625 14.027 50.8594 14.3366 51.2372C14.6463 51.6122 14.8011 52.0767 14.8011 52.6307C14.8011 53.1051 14.6719 53.5312 14.4134 53.9091C14.1577 54.2841 13.8082 54.5795 13.3651 54.7955C12.9219 55.0114 12.4176 55.1193 11.8523 55.1193Z" fill="#77917F"/>
<path d="M51.6818 46.1534C52.0398 46.1562 52.3977 46.2244 52.7557 46.358C53.1136 46.4915 53.4403 46.7131 53.7358 47.0227C54.0313 47.3295 54.2685 47.7486 54.4474 48.2798C54.6264 48.8111 54.7159 49.4773 54.7159 50.2784C54.7159 51.054 54.642 51.7429 54.4943 52.3452C54.3494 52.9446 54.1392 53.4503 53.8636 53.8622C53.5909 54.2741 53.2585 54.5866 52.8665 54.7997C52.4773 55.0128 52.0369 55.1193 51.5455 55.1193C51.0568 55.1193 50.6207 55.0227 50.2372 54.8295C49.8565 54.6335 49.544 54.3622 49.2997 54.0156C49.0582 53.6662 48.9034 53.2614 48.8352 52.8011H49.875C49.9688 53.2017 50.1548 53.5327 50.4332 53.794C50.7145 54.0526 51.0852 54.1818 51.5455 54.1818C52.2188 54.1818 52.75 53.8878 53.1392 53.2997C53.5313 52.7116 53.7273 51.8807 53.7273 50.8068H53.6591C53.5 51.0455 53.3111 51.2514 53.0923 51.4247C52.8736 51.598 52.6307 51.7315 52.3636 51.8253C52.0966 51.919 51.8125 51.9659 51.5114 51.9659C51.0114 51.9659 50.5526 51.8423 50.1349 51.5952C49.7202 51.3452 49.3878 51.0028 49.1378 50.5682C48.8906 50.1307 48.767 49.6307 48.767 49.0682C48.767 48.5341 48.8864 48.0455 49.125 47.6023C49.3665 47.1562 49.7045 46.8011 50.1392 46.5369C50.5767 46.2727 51.0909 46.1449 51.6818 46.1534ZM51.6818 47.0909C51.3239 47.0909 51.0014 47.1804 50.7145 47.3594C50.4304 47.5355 50.2045 47.7741 50.0369 48.0753C49.8722 48.3736 49.7898 48.7045 49.7898 49.0682C49.7898 49.4318 49.8693 49.7628 50.0284 50.0611C50.1903 50.3565 50.4105 50.5923 50.6889 50.7685C50.9702 50.9418 51.2898 51.0284 51.6477 51.0284C51.9176 51.0284 52.169 50.9759 52.402 50.8707C52.6349 50.7628 52.8381 50.6165 53.0114 50.4318C53.1875 50.2443 53.3253 50.0327 53.4247 49.7969C53.5241 49.5582 53.5739 49.3097 53.5739 49.0511C53.5739 48.7102 53.4915 48.3906 53.3267 48.0923C53.1648 47.794 52.9403 47.5526 52.6534 47.3679C52.3693 47.1832 52.0455 47.0909 51.6818 47.0909Z" fill="#77917F"/>
<path d="M33.6705 50.7898V51.7273H29.8523V50.7898H33.6705Z" fill="#77917F"/>
<path d="M27.6307 36.1193C27.1307 36.1193 26.6804 36.0199 26.2798 35.821C25.8793 35.6222 25.5582 35.3494 25.3168 35.0028C25.0753 34.6562 24.9432 34.2614 24.9205 33.8182H25.9432C25.983 34.2131 26.1619 34.5398 26.4801 34.7983C26.8011 35.054 27.1847 35.1818 27.6307 35.1818C27.9886 35.1818 28.3068 35.098 28.5852 34.9304C28.8665 34.7628 29.0866 34.5327 29.2457 34.2401C29.4077 33.9446 29.4886 33.6108 29.4886 33.2386C29.4886 32.858 29.4048 32.5185 29.2372 32.2202C29.0724 31.919 28.8452 31.6818 28.5554 31.5085C28.2656 31.3352 27.9347 31.2472 27.5625 31.2443C27.2955 31.2415 27.0213 31.2827 26.7401 31.3679C26.4588 31.4503 26.2273 31.5568 26.0455 31.6875L25.0568 31.5682L25.5852 27.2727H30.1193V28.2102H26.4716L26.1648 30.7841H26.2159C26.3949 30.642 26.6193 30.5241 26.8892 30.4304C27.1591 30.3366 27.4403 30.2898 27.733 30.2898C28.267 30.2898 28.7429 30.4176 29.1605 30.6733C29.581 30.9261 29.9105 31.2727 30.1491 31.7131C30.3906 32.1534 30.5114 32.6562 30.5114 33.2216C30.5114 33.7784 30.3864 34.2756 30.1364 34.7131C29.8892 35.1477 29.5483 35.4915 29.1136 35.7443C28.679 35.9943 28.1847 36.1193 27.6307 36.1193ZM34.9315 36.1193C34.4315 36.1193 33.9812 36.0199 33.5806 35.821C33.18 35.6222 32.859 35.3494 32.6175 35.0028C32.3761 34.6562 32.244 34.2614 32.2212 33.8182H33.244C33.2837 34.2131 33.4627 34.5398 33.7809 34.7983C34.1019 35.054 34.4854 35.1818 34.9315 35.1818C35.2894 35.1818 35.6076 35.098 35.886 34.9304C36.1673 34.7628 36.3874 34.5327 36.5465 34.2401C36.7085 33.9446 36.7894 33.6108 36.7894 33.2386C36.7894 32.858 36.7056 32.5185 36.538 32.2202C36.3732 31.919 36.146 31.6818 35.8562 31.5085C35.5664 31.3352 35.2354 31.2472 34.8633 31.2443C34.5962 31.2415 34.3221 31.2827 34.0408 31.3679C33.7596 31.4503 33.5281 31.5568 33.3462 31.6875L32.3576 31.5682L32.886 27.2727H37.4201V28.2102H33.7724L33.4656 30.7841H33.5167C33.6957 30.642 33.9201 30.5241 34.19 30.4304C34.4599 30.3366 34.7411 30.2898 35.0337 30.2898C35.5678 30.2898 36.0437 30.4176 36.4613 30.6733C36.8817 30.9261 37.2113 31.2727 37.4499 31.7131C37.6914 32.1534 37.8121 32.6562 37.8121 33.2216C37.8121 33.7784 37.6871 34.2756 37.4371 34.7131C37.19 35.1477 36.8491 35.4915 36.4144 35.7443C35.9798 35.9943 35.4854 36.1193 34.9315 36.1193Z" fill="#77917F"/>
<path d="M5.90341 36V35.233L8.78409 32.0795C9.12216 31.7102 9.40057 31.3892 9.61932 31.1165C9.83807 30.8409 10 30.5824 10.1051 30.3409C10.2131 30.0966 10.267 29.8409 10.267 29.5739C10.267 29.267 10.1932 29.0014 10.0455 28.777C9.90057 28.5526 9.7017 28.3793 9.44886 28.2571C9.19602 28.1349 8.91193 28.0739 8.59659 28.0739C8.26136 28.0739 7.96875 28.1435 7.71875 28.2827C7.47159 28.419 7.27983 28.6108 7.14347 28.858C7.00994 29.1051 6.94318 29.3949 6.94318 29.7273H5.9375C5.9375 29.2159 6.0554 28.767 6.29119 28.3807C6.52699 27.9943 6.84801 27.6932 7.25426 27.4773C7.66335 27.2614 8.12216 27.1534 8.63068 27.1534C9.14205 27.1534 9.59517 27.2614 9.99006 27.4773C10.3849 27.6932 10.6946 27.9844 10.919 28.3509C11.1435 28.7173 11.2557 29.125 11.2557 29.5739C11.2557 29.8949 11.1974 30.2088 11.081 30.5156C10.9673 30.8196 10.7685 31.1591 10.4844 31.5341C10.2031 31.9062 9.8125 32.3608 9.3125 32.8977L7.35227 34.9943V35.0625H11.4091V36H5.90341ZM13.169 36V35.233L16.0497 32.0795C16.3878 31.7102 16.6662 31.3892 16.8849 31.1165C17.1037 30.8409 17.2656 30.5824 17.3707 30.3409C17.4787 30.0966 17.5327 29.8409 17.5327 29.5739C17.5327 29.267 17.4588 29.0014 17.3111 28.777C17.1662 28.5526 16.9673 28.3793 16.7145 28.2571C16.4616 28.1349 16.1776 28.0739 15.8622 28.0739C15.527 28.0739 15.2344 28.1435 14.9844 28.2827C14.7372 28.419 14.5455 28.6108 14.4091 28.858C14.2756 29.1051 14.2088 29.3949 14.2088 29.7273H13.2031C13.2031 29.2159 13.321 28.767 13.5568 28.3807C13.7926 27.9943 14.1136 27.6932 14.5199 27.4773C14.929 27.2614 15.3878 27.1534 15.8963 27.1534C16.4077 27.1534 16.8608 27.2614 17.2557 27.4773C17.6506 27.6932 17.9602 27.9844 18.1847 28.3509C18.4091 28.7173 18.5213 29.125 18.5213 29.5739C18.5213 29.8949 18.4631 30.2088 18.3466 30.5156C18.233 30.8196 18.0341 31.1591 17.75 31.5341C17.4688 31.9062 17.0781 32.3608 16.5781 32.8977L14.6179 34.9943V35.0625H18.6747V36H13.169Z" fill="#77917F"/>
<path d="M49.1761 17L53.0795 9.27841V9.21023H48.5795V8.27273H54.1705V9.26136L50.2841 17H49.1761Z" fill="#77917F"/>
<path d="M51.6989 36.1193C51.1136 36.1193 50.5966 36.0156 50.1477 35.8082C49.7017 35.598 49.3537 35.3097 49.1037 34.9432C48.8537 34.5739 48.7301 34.1534 48.733 33.6818C48.7301 33.3125 48.8026 32.9716 48.9503 32.6591C49.098 32.3437 49.2997 32.081 49.5554 31.8707C49.8139 31.6577 50.1023 31.5227 50.4205 31.4659V31.4148C50.0028 31.3068 49.6705 31.0724 49.4233 30.7116C49.1761 30.348 49.054 29.9347 49.0568 29.4716C49.054 29.0284 49.1662 28.6321 49.3935 28.2827C49.6207 27.9332 49.9332 27.6577 50.331 27.456C50.7315 27.2543 51.1875 27.1534 51.6989 27.1534C52.2045 27.1534 52.6563 27.2543 53.054 27.456C53.4517 27.6577 53.7642 27.9332 53.9915 28.2827C54.2216 28.6321 54.3381 29.0284 54.3409 29.4716C54.3381 29.9347 54.2116 30.348 53.9616 30.7116C53.7145 31.0724 53.3864 31.3068 52.9773 31.4148V31.4659C53.2926 31.5227 53.5767 31.6577 53.8295 31.8707C54.0824 32.081 54.2841 32.3437 54.4347 32.6591C54.5852 32.9716 54.6619 33.3125 54.6648 33.6818C54.6619 34.1534 54.5341 34.5739 54.2812 34.9432C54.0312 35.3097 53.6832 35.598 53.2372 35.8082C52.794 36.0156 52.2813 36.1193 51.6989 36.1193ZM51.6989 35.1818C52.0938 35.1818 52.4347 35.1179 52.7216 34.9901C53.0085 34.8622 53.2301 34.6818 53.3864 34.4489C53.5426 34.2159 53.6222 33.9432 53.625 33.6307C53.6222 33.3011 53.5369 33.0099 53.3693 32.7571C53.2017 32.5043 52.973 32.3054 52.6832 32.1605C52.3963 32.0156 52.0682 31.9432 51.6989 31.9432C51.3267 31.9432 50.9943 32.0156 50.7017 32.1605C50.4119 32.3054 50.1832 32.5043 50.0156 32.7571C49.8509 33.0099 49.7699 33.3011 49.7727 33.6307C49.7699 33.9432 49.8452 34.2159 49.9986 34.4489C50.1548 34.6818 50.3778 34.8622 50.6676 34.9901C50.9574 35.1179 51.3011 35.1818 51.6989 35.1818ZM51.6989 31.0398C52.0114 31.0398 52.2884 30.9773 52.5298 30.8523C52.7741 30.7273 52.9659 30.5526 53.1051 30.3281C53.2443 30.1037 53.3153 29.8409 53.3182 29.5398C53.3153 29.2443 53.2457 28.9872 53.1094 28.7685C52.973 28.5469 52.7841 28.3764 52.5426 28.2571C52.3011 28.1349 52.0199 28.0739 51.6989 28.0739C51.3722 28.0739 51.0866 28.1349 50.8423 28.2571C50.598 28.3764 50.4091 28.5469 50.2756 28.7685C50.142 28.9872 50.0767 29.2443 50.0795 29.5398C50.0767 29.8409 50.1435 30.1037 50.2798 30.3281C50.419 30.5526 50.6108 30.7273 50.8551 30.8523C51.0994 30.9773 51.3807 31.0398 51.6989 31.0398Z" fill="#77917F"/>
<path d="M7.97159 8.27273V17H6.91477V9.38068H6.86364L4.73295 10.7955V9.72159L6.91477 8.27273H7.97159ZM13.5497 8.27273V17H12.4929V9.38068H12.4418L10.3111 10.7955V9.72159L12.4929 8.27273H13.5497ZM19.1278 8.27273V17H18.071V9.38068H18.0199L15.8892 10.7955V9.72159L18.071 8.27273H19.1278Z" fill="#77917F"/>
</svg>
